<svg xmlns="http://www.w3.org/2000/svg" width="16" height="16" viewBox="0 0 16 16" fill="none">
  <path d="M8.47145 6.58579L8.00005 7.0572L7.52864 6.58579C7.26829 6.32544 7.26829 5.90333 7.52864 5.64298L10.3571 2.81456C10.6174 2.55421 11.0395 2.55421 11.2999 2.81456L13.1855 4.70017C13.4458 4.96052 13.4458 5.38263 13.1855 5.64298L10.3571 8.47141C10.0967 8.73176 9.67461 8.73176 9.41426 8.47141L8.94285 8.00001L9.41426 7.5286L9.88566 8.00001L12.7141 5.17158L10.8285 3.28596L8.00005 6.11439L8.47145 6.58579Z" fill="#575757"/>
  <path d="M7.52894 9.41421L8.00034 8.9428L8.47175 9.41421C8.73209 9.67456 8.73209 10.0967 8.47175 10.357L5.64332 13.1854C5.38297 13.4458 4.96086 13.4458 4.70051 13.1854L2.81489 11.2998C2.55454 11.0395 2.55454 10.6174 2.81489 10.357L5.64332 7.52859C5.90367 7.26824 6.32578 7.26824 6.58613 7.52859L7.05753 8L6.58613 8.4714L6.11472 8L3.2863 10.8284L5.17191 12.714L8.00034 9.88561L7.52894 9.41421Z" fill="#575757"/>
  <path d="M9.41451 6.5858C9.28434 6.45562 9.07328 6.45562 8.94311 6.5858L6.58608 8.94282C6.45591 9.07299 6.45591 9.28405 6.58608 9.41422C6.71626 9.5444 6.92731 9.5444 7.05749 9.41422L9.41451 7.0572C9.54469 6.92703 9.54469 6.71597 9.41451 6.5858Z" fill="#575757"/>
</svg>
