<svg xmlns="http://www.w3.org/2000/svg" width="16" height="16" viewBox="0 0 16 16" fill="none">
  <path fill-rule="evenodd" clip-rule="evenodd" d="M14 3V13C14 14.1046 13.1046 15 12 15H4C2.89543 15 2 14.1046 2 13V3C2 1.89543 2.89543 1 4 1H12C13.1046 1 14 1.89543 14 3ZM13 3C13 2.44772 12.5523 2 12 2H4C3.44772 2 3 2.44772 3 3V13C3 13.5523 3.44772 14 4 14H12C12.5523 14 13 13.5523 13 13V3ZM10.5 5C10.7761 5 11 4.77614 11 4.5C11 4.22386 10.7761 4 10.5 4H5.5C5.22386 4 5 4.22386 5 4.5C5 4.77614 5.22386 5 5.5 5H10.5ZM11 7C11 7.27614 10.7761 7.5 10.5 7.5H5.5C5.22386 7.5 5 7.27614 5 7C5 6.72386 5.22386 6.5 5.5 6.5H10.5C10.7761 6.5 11 6.72386 11 7ZM8.5 10C8.77614 10 9 9.77614 9 9.5C9 9.22386 8.77614 9 8.5 9H5.5C5.22386 9 5 9.22386 5 9.5C5 9.77614 5.22386 10 5.5 10H8.5Z" fill="#575757"/>
</svg>
